HIERARCHY
ROOT Hips
{
	OFFSET	0.00	0.00	0.00
	CHANNELS 6 Xposition Yposition Zposition Zrotation Xrotation Yrotation
	JOINT Spine
	{
		OFFSET	 0.00	0.01	 0.00
		CHANNELS 3 Zrotation Xrotation Yrotation
		JOINT Spine1
		{
			OFFSET	 0.00	 2.45913012437421	 0.00
			CHANNELS 3 Zrotation Xrotation Yrotation
            JOINT Neck
            {
                OFFSET	 0.00	 2.48462964506057	 0.00
                CHANNELS 3 Zrotation Xrotation Yrotation
                JOINT Head
                {
                    OFFSET	 0.00	 0.927524780924562	 0.00
                    CHANNELS 3 Zrotation Xrotation Yrotation
                    End Site 
                    {
                        OFFSET	 0.00	 1.14999962169752	 0.00
                    }
                }
            }
			JOINT LeftShoulder
			{
				OFFSET	 0.00	 2.48462964506057	 0.00
				CHANNELS 3 Zrotation Xrotation Yrotation
				JOINT LeftUpArm
				{
					OFFSET	 0.00	 1.24881979654096	 0.00
					CHANNELS 3 Zrotation Xrotation Yrotation
					JOINT LeftForeArm
					{
						OFFSET	 0.00	2.59758046908119	 0.00
						CHANNELS 3 Zrotation Xrotation Yrotation
						JOINT LeftHand
						{
							OFFSET	 0.00	2.45542024364365	 0.00
							CHANNELS 3 Zrotation Xrotation Yrotation
							JOINT LeftHandThumb 
							{
								OFFSET	 0.00	0.00	 0.00
								CHANNELS 3 Zrotation Xrotation Yrotation
								End Site
								{
									OFFSET	 0.00	0.00	1.00000003353624
								}
							}
							JOINT L_Wrist_End 
							{
								OFFSET	 0.00	0.99999967115358	 0.00
								CHANNELS 3 Zrotation Xrotation Yrotation
								End Site 
								{
									OFFSET	 0.00	 0.00	 0.00
								}
							}
						}
					}
				}
			}
			JOINT RightShoulder
			{
				OFFSET	 0.00	 2.48462964506057	 0.00
				CHANNELS 3 Zrotation Xrotation Yrotation
				JOINT RightUpArm
				{
					OFFSET	 0.00	 1.24881979654096	 0.00
					CHANNELS 3 Zrotation Xrotation Yrotation
					JOINT RightForeArm
					{
						OFFSET	 0.00	2.59758046908119	 0.00
						CHANNELS 3 Zrotation Xrotation Yrotation
						JOINT RightHand
						{
							OFFSET	 0.00	2.45542024364365	 0.00
							CHANNELS 3 Zrotation Xrotation Yrotation
							JOINT RightHandThumb 
							{
								OFFSET	 0.00	0.00	 0.00
								CHANNELS 3 Zrotation Xrotation Yrotation
								End Site
								{
									OFFSET	 0.00	0.00	1.00000003353624
								}
							}
							JOINT R_Wrist_End 
							{
								OFFSET	 0.00	0.99999967115358	 0.00
								CHANNELS 3 Zrotation Xrotation Yrotation
								End Site 
								{
									OFFSET	 0.00	 0.00	 0.00
								}
							}
						}
					}
				}
			}
		}
	}
	JOINT LeftUpLeg
	{
		OFFSET	 1.2719394002717	 0.00	 0.00
		CHANNELS 3 Zrotation Xrotation Yrotation
		JOINT LeftLowLeg
		{
			OFFSET	 0.00	-4.3429100912261	 0.00
			CHANNELS 3 Zrotation Xrotation Yrotation
			JOINT LeftFoot
			{
				OFFSET	 0.00	-4.48767017425826	 0.00
				CHANNELS 3 Zrotation Xrotation Yrotation
				JOINT LeftToeBase
                {
                    OFFSET	 0.00	0.00	 1.51507020887566
                    CHANNELS 3 Zrotation Xrotation Yrotation
                    End Site 
                    {
                        OFFSET	 0.00	0.00	 0.75000010571191
                    }
                }
			}
		}
	}
	JOINT RightUpLeg
	{
		OFFSET	 -1.2719393604653	 0.00	 0.00
		CHANNELS 3 Zrotation Xrotation Yrotation
		JOINT RightLowLeg
		{
			OFFSET	 0.00	-4.3429100912261	 0.00
			CHANNELS 3 Zrotation Xrotation Yrotation
			JOINT RightFoot
			{
				OFFSET	 0.00	-4.48767017425826	 0.00
				CHANNELS 3 Zrotation Xrotation Yrotation
				JOINT RightToeBase
                {
                    OFFSET	 0.00	0.00	 1.51507020887566
                    CHANNELS 3 Zrotation Xrotation Yrotation
                    End Site 
                    {
                        OFFSET	 0.00	0.00	 0.749999965609858
                    }
                }   
			}
		}
	}
}
MOTION 
Frames:	11 
Frame Time: 0.02 
 0.15696200370788574 5.992750244140625 9.343389892578125 -140.227 82.1527 1220.58 1.42862 -9.6669 0.145923 5.454 -6.73929 0.442494 -13.4668 60.4436 367.861 97.4774 -78.1551 -273.957 -113.5503 -7.06354 -8.64581 11.5555 12.2644 -25.5655 0.0 9.66276 0.0 22.9768 -10.0253 24.7204 0.0 0.0 0.0 0.0 0.0 0.0 110.4058 -7.98847 6.58844 -8.27578 3.18082 47.0142 0.0 18.0931 0.0 -26.4616 -17.3504 -46.6552 0.0 0.0 0.0 0.0 0.0 0.0 1.60979 -6.38146 -3.28952 0.0 6.6602 0.0 -13.0218 0.8249998 11.6746 0.0 -29.093 0.0 9.61368 -6.60853 0.845556 0.0 10.5206 0.0 8.67644 1.0799999 -15.8594 0.0 -40.631203 0.0 
  0.15774800300598144 5.9896697998046875 9.343270263671876 -140.518 82.1108 1220.83 1.40756 -9.74353 0.139633 5.46525 -6.69251 0.43832 -13.0795 60.5296 367.234 97.6687 -78.2737 -273.838 -113.5588 -7.02981 -8.60018 11.4705 12.2958 -25.8319 0.0 9.62841 0.0 22.8748 -10.1562 24.5514 0.0 0.0 0.0 0.0 0.0 0.0 110.4225 -8.0335 6.73133 -8.20905 3.26222 47.1861 0.0 18.1 0.0 -26.3927 -17.2406 -46.7608 0.0 0.0 0.0 0.0 0.0 0.0 1.60488 -6.38033 -3.35013 0.0 6.59827 0.0 -13.0023 0.81970024 11.7477 0.0 -29.0973 0.0 9.60645 -6.64334 0.8509 0.0 10.513 0.0 8.66717 1.1290998 -15.8359 0.0 -40.606598 0.0 
  0.15854299545288086 5.9861297607421875 9.343070068359374 -140.843 82.0579 1221.1 1.39821 -9.83269 0.1351 5.48969 -6.62263 0.431318 -12.5741 60.5859 366.43 98.0238 -78.4147 -273.522 -113.5685 -7.00196 -8.64791 11.3882 12.3151 -25.9648 0.0 9.55632 0.0 22.8043 -10.0532 24.5428 0.0 0.0 0.0 0.0 0.0 0.0 110.4185 -8.01104 6.76798 -8.16617 3.2595 47.4313 0.0 18.154 0.0 -26.3644 -17.2591 -46.8775 0.0 0.0 0.0 0.0 0.0 0.0 1.60364 -6.38906 -3.40182 0.0 6.54812 0.0 -13.005 0.7869997 11.8198 0.0 -29.1059 0.0 9.60094 -6.65983 0.861481 0.0 10.4437 0.0 8.70646 1.2475996 -15.7906 0.0 -40.5368 0.0 
  0.15926899909973144 5.982949829101562 9.342940063476563 -141.247 82.0125 1221.45 1.39274 -9.92 0.13008 5.48652 -6.51579 0.420964 -12.1171 60.539 365.71 98.3303 -78.5622 -273.291 -113.5654 -6.9681 -8.64679 11.3464 12.2785 -25.9518 0.0 9.54898 0.0 22.8059 -10.0449 24.6294 0.0 0.0 0.0 0.0 0.0 0.0 110.4384 -7.97816 6.72927 -8.17993 3.24206 47.6578 0.0 18.142 0.0 -26.401 -17.2325 -47.0106 0.0 0.0 0.0 0.0 0.0 0.0 1.58856 -6.4174 -3.46439 0.0 6.52849 0.0 -13.0057 0.7596998 11.9013 0.0 -29.1148 0.0 9.58495 -6.67745 0.909878 0.0 10.3783 0.0 8.77822 1.3101997 -15.78 0.0 -40.443398 0.0 
  0.160132999420166 5.979409790039062 9.342550048828125 -141.563 81.9992 1221.68 1.36618 -9.96033 0.133237 5.52631 -6.43671 0.425576 -11.5349 60.4723 364.787 98.5054 -78.7709 -273.246 -113.5595 -6.94224 -8.76311 11.2824 12.2505 -25.7122 0.0 9.54423 0.0 22.8733 -10.0373 24.5811 0.0 0.0 0.0 0.0 0.0 0.0 110.3944 -7.95707 6.75068 -8.17587 3.24027 47.6785 0.0 18.1253 0.0 -26.4506 -17.3075 -47.1248 0.0 0.0 0.0 0.0 0.0 0.0 1.56241 -6.40372 -3.54777 0.0 6.50494 0.0 -13.0131 0.7119999 12.0306 0.0 -29.1042 0.0 9.55368 -6.67401 0.91142 0.0 10.3345 0.0 8.84274 1.3852997 -15.7043 0.0 -40.4348 0.0 
  0.16113800048828125 5.977869873046875 9.342520141601563 -141.644 81.9979 1221.64 1.38074 -9.87394 0.153611 5.54664 -6.44778 0.443101 -10.9406 60.4477 363.86 99.058 -78.9271 -272.728 -113.5953 -7.00688 -8.63901 11.361 12.257 -25.7581 0.0 9.4857 0.0 22.8844 -10.0436 24.3988 0.0 0.0 0.0 0.0 0.0 0.0 110.3638 -7.92577 6.68657 -8.1974 3.23297 47.8223 0.0 18.0607 0.0 -26.5185 -17.2462 -47.3519 0.0 0.0 0.0 0.0 0.0 0.0 1.56151 -6.38876 -3.43117 0.0 6.51918 0.0 -13.0027 0.6864996 12.028 0.0 -29.0917 0.0 9.54875 -6.64917 0.996572 0.0 10.2787 0.0 8.92617 1.5382004 -15.6866 0.0 -40.5126 0.0 
  0.16225700378417968 5.975369873046875 9.342310180664063 -141.853 81.9871 1221.75 1.39245 -9.83175 0.163154 5.55862 -6.46659 0.450887 -10.0874 60.4602 362.573 99.4402 -79.1167 -272.392 -113.5957 -7.0062 -8.55808 11.3974 12.1859 -25.8603 0.0 9.47676 0.0 22.8973 -10.0796 24.3335 0.0 0.0 0.0 0.0 0.0 0.0 110.349 -7.82236 6.57083 -8.27415 3.10493 47.8534 0.0 18.0276 0.0 -26.5969 -17.2487 -47.3939 0.0 0.0 0.0 0.0 0.0 0.0 1.54478 -6.38012 -3.41053 0.0 6.51451 0.0 -13.0033 0.64869976 12.087 0.0 -29.035599 0.0 9.534 -6.61092 1.12811 0.0 10.1591 0.0 8.98551 1.7721996 -15.7589 0.0 -40.296898 0.0 
  0.16406299591064452 5.971580200195312 9.341959838867188 -142.445 81.9418 1222.19 1.44108 -9.85046 0.203024 5.50541 -6.47725 0.480859 -9.35948 60.4682 361.441 100.148 -79.2956 -271.756 -113.5747 -7.02262 -8.53464 11.4331 12.129 -25.9148 0.0 9.47654 0.0 22.937 -10.1371 24.3845 0.0 0.0 0.0 0.0 0.0 0.0 110.3719 -7.79137 6.5828 -8.33753 3.0829 47.8672 0.0 18.0516 0.0 -26.6647 -17.2768 -47.4891 0.0 0.0 0.0 0.0 0.0 0.0 1.50548 -6.38098 -3.3985 0.0 6.44325 0.0 -12.9816 0.6239004 12.2179 0.0 -29.0517 0.0 9.49204 -6.63139 1.217 0.0 10.0353 0.0 9.06502 2.1421003 -15.7697 0.0 -40.3807 0.0 
  0.1653380012512207 5.968909912109375 9.341170043945313 -142.852 81.8975 1222.5 1.48913 -9.81856 0.213439 5.47545 -6.50201 0.481168 -8.87516 60.4463 360.588 101.143 -79.5036 -270.914 -113.5854 -7.07288 -8.54931 11.4962 12.1058 -25.9921 0.0 9.47397 0.0 22.9131 -10.1968 24.4999 0.0 0.0 0.0 0.0 0.0 0.0 110.3883 -7.79412 6.54575 -8.40553 3.10709 47.9154 0.0 18.068 0.0 -26.7103 -17.2485 -47.5021 0.0 0.0 0.0 0.0 0.0 0.0 1.48722 -6.42265 -3.26412 0.0 6.45466 0.0 -12.9606 0.58619976 12.1914 0.0 -29.0481 0.0 9.47411 -6.64124 1.3195 0.0 9.88901 0.0 9.15567 2.6257 -15.8684 0.0 -40.3574 0.0 
  0.1658650016784668 5.96448974609375 9.340360107421875 -143.73 81.8475 1223.26 1.47055 -9.87748 0.230433 5.4744 -6.49348 0.502966 -8.45492 60.4528 359.817 102.025 -79.7183 -270.236 -113.6213 -7.02677 -8.44796 11.6164 11.9652 -26.0767 0.0 9.46392 0.0 22.9071 -10.1943 24.5254 0.0 0.0 0.0 0.0 0.0 0.0 110.413605 -7.80687 6.53455 -8.49053 3.10753 47.8329 0.0 18.1246 0.0 -26.6872 -17.2621 -47.4377 0.0 0.0 0.0 0.0 0.0 0.0 1.4179 -6.41814 -3.41035 0.0 6.32415 0.0 -12.9627 0.5525999 12.4281 0.0 -28.949799 0.0 9.39932 -6.70684 1.32958 0.0 9.76002 0.0 9.29259 3.2255 -15.8614 0.0 -40.561302 0.0 
  0.16646600723266602 5.960159912109375 9.33916015625 -144.562 81.8163 1223.99 1.44762 -9.8776 0.215737 5.46038 -6.57998 0.499438 -8.04301 60.4851 359.113 102.145 -79.8988 -270.19 -113.6136 -7.0642 -8.47676 11.6656 11.9193 -25.993 0.0 9.41059 0.0 22.9927 -10.2024 24.5771 0.0 0.0 0.0 0.0 0.0 0.0 110.4065 -7.76481 6.42297 -8.51139 3.0701 47.8529 0.0 18.2276 0.0 -26.6456 -17.2252 -47.4316 0.0 0.0 0.0 0.0 0.0 0.0 1.33775 -6.36735 -3.75487 0.0 6.13639 0.0 -12.9873 0.50599957 12.8106 0.0 -28.8997 0.0 9.31743 -6.75698 1.44032 0.0 9.6354 0.0 9.64945 3.7194996 -15.8851 0.0 -40.4791 0.0 
